HIERARCHY
ROOT Hips
{
    OFFSET 0.000000 0.000000 0.000000
    CHANNELS 6 Xposition Yposition Zposition Zrotation Xrotation Yrotation
    JOINT Spine
    {
        OFFSET -0.000000 7.236184 0.000000
        CHANNELS 3 Zrotation Xrotation Yrotation
        JOINT Spine1
        {
            OFFSET -0.000000 20.420147 0.000000
            CHANNELS 3 Zrotation Xrotation Yrotation
            JOINT Neck
            {
                OFFSET -0.000000 20.336288 1.848754
                CHANNELS 3 Zrotation Xrotation Yrotation
                JOINT Head
                {
                    OFFSET -0.000000 12.354461 -1.764923
                    CHANNELS 3 Zrotation Xrotation Yrotation
                    End Site
                    {
                        OFFSET -0.000000 22.061537 0.000000
                    }
                }
            }
            JOINT LeftShoulder
            {
                OFFSET 3.573296 18.396038 -0.314103
                CHANNELS 3 Zrotation Xrotation Yrotation
                JOINT LeftArm
                {
                    OFFSET 10.880760 0.000000 0.000000
                    CHANNELS 3 Zrotation Xrotation Yrotation
                    JOINT LeftForeArm
                    {
                        OFFSET 27.185530 0.000000 0.000000
                        CHANNELS 3 Zrotation Xrotation Yrotation
                        JOINT LeftHand
                        {
                            OFFSET 27.825975 0.000000 0.000000
                            CHANNELS 3 Zrotation Xrotation Yrotation
                            End Site
                            {
                                OFFSET 13.236923 0.000000 0.000000
                            }
                        }
                    }
                }
            }
            JOINT RightShoulder
            {
                OFFSET -3.474926 18.396038 -0.314103
                CHANNELS 3 Zrotation Xrotation Yrotation
                JOINT RightArm
                {
                    OFFSET -10.880760 0.000000 0.000000
                    CHANNELS 3 Zrotation Xrotation Yrotation
                    JOINT RightForeArm
                    {
                        OFFSET -27.185530 0.000000 0.000000
                        CHANNELS 3 Zrotation Xrotation Yrotation
                        JOINT RightHand
                        {
                            OFFSET -27.825975 0.000000 0.000000
                            CHANNELS 3 Zrotation Xrotation Yrotation
                            End Site
                            {
                                OFFSET -13.236923 0.000000 0.000000
                            }
                        }
                    }
                }
            }
        }
    }
    JOINT LeftUpLeg
    {
        OFFSET 8.824615 0.000000 0.000000
        CHANNELS 3 Zrotation Xrotation Yrotation
        JOINT LeftLeg
        {
            OFFSET -0.000000 -35.111282 0.000000
            CHANNELS 3 Zrotation Xrotation Yrotation
            JOINT LeftFoot
            {
                OFFSET -0.000000 -42.324711 0.000000
                CHANNELS 3 Zrotation Xrotation Yrotation
                JOINT LeftToeBase
                {
                    OFFSET -0.000000 -5.735999 13.236923
                    CHANNELS 3 Zrotation Xrotation Yrotation
                    End Site
                    {
                        OFFSET -0.000000 0.000000 3.529846
                    }
                }
            }
        }
    }
    JOINT RightUpLeg
    {
        OFFSET -8.824615 0.000000 0.000000
        CHANNELS 3 Zrotation Xrotation Yrotation
        JOINT RightLeg
        {
            OFFSET -0.000000 -35.111282 0.000000
            CHANNELS 3 Zrotation Xrotation Yrotation
            JOINT RightFoot
            {
                OFFSET -0.000000 -42.324711 0.000000
                CHANNELS 3 Zrotation Xrotation Yrotation
                JOINT RightToeBase
                {
                    OFFSET -0.000000 -5.735999 13.236923
                    CHANNELS 3 Zrotation Xrotation Yrotation
                    End Site
                    {
                        OFFSET -0.000000 0.000000 3.529846
                    }
                }
            }
        }
    }
}
MOTION
Frames:    11
Frame Time:    0.008333
-11.994650    72.585793    122.949554    3.828880    -33.114819    -171.112915    0.467359    -3.104175    0.369445    3.871516    6.597257    0.133681    2.922928    4.585473    -2.936202    -18.117573    -30.176949    -10.608451    26.476095    -19.501678    -11.743037    -16.220514    -4.325776    -68.381180    8.080517    5.397317    -4.279482    -27.541868    4.811766    3.631335    -24.535177    -10.568040    9.990265    17.225847    -16.703289    53.594799    -29.085434    -15.445518    28.868399    2.850348    -7.971103    -0.949871    8.882046    -75.327896    4.917362    0.813269    52.964756    10.296996    -7.894099    -8.458230    -16.318323    0.197457    -5.573025    -0.221201    -32.714397    -68.183746    -23.809368    2.528142    52.990784    4.735021    1.610667    -10.298896    -22.335520    -0.623698    -7.611695    0.682177    
-12.009914    72.950500    122.905563    3.813591    -33.073742    -171.283234    0.411463    -3.252868    0.371604    3.855934    6.604714    0.137420    2.936375    5.326509    -3.057041    -18.060661    -29.784683    -10.632156    26.372087    -19.387808    -11.672916    -16.066147    -4.386864    -68.189705    8.328476    5.403995    -4.555363    -28.633038    4.755783    3.848783    -24.313297    -10.361385    9.879066    17.096996    -16.448952    53.732582    -29.430681    -15.548771    29.108437    4.714959    -7.925193    -0.802820    8.733591    -74.741241    4.707173    0.865038    52.192863    10.280369    -7.848673    -8.473148    -16.243483    0.199595    -5.675495    -0.223642    -31.717716    -67.713608    -22.845232    2.578637    52.060078    4.735609    1.581212    -10.248117    -22.245096    -0.617126    -7.787654    0.675177    
-12.022874    73.299164    122.867790    3.805396    -33.052284    -171.446548    0.351074    -3.392595    0.377184    3.847737    6.610884    0.144502    2.948331    6.013767    -3.172872    -17.956577    -29.387827    -10.632634    26.273897    -19.284992    -11.596877    -15.916140    -4.433717    -68.009979    8.627576    5.420612    -4.872587    -29.629883    4.718318    4.054420    -24.076130    -10.143380    9.777182    17.000536    -16.219942    53.866161    -29.840385    -15.636376    29.348854    6.478971    -7.839858    -0.690449    8.615236    -74.197441    4.488976    0.874855    51.450207    10.314407    -7.817735    -8.499290    -16.169767    0.196713    -5.777675    -0.220458    -30.807156    -67.274139    -21.966045    2.625767    51.162258    4.727589    1.553305    -10.222827    -22.158915    -0.604880    -7.939931    0.661940    
-12.033631    73.642731    122.835091    3.804482    -33.048237    -171.608093    0.284042    -3.525497    0.386175    3.848392    6.616528    0.155087    2.959001    6.665501    -3.286480    -17.807098    -28.975201    -10.611885    26.179279    -19.193720    -11.511744    -15.768212    -4.466607    -67.835449    8.984455    5.444667    -5.237414    -30.556948    4.697170    4.252516    -23.818062    -9.907690    9.682706    16.938263    -16.015635    53.998684    -30.318121    -15.716237    29.599979    8.188699    -7.720729    -0.612695    8.526979    -73.678391    4.260993    0.846365    50.714527    10.395184    -7.802218    -8.538532    -16.094812    0.189070    -5.880555    -0.211935    -29.944334    -66.851830    -21.136808    2.669783    50.270226    4.712780    1.525013    -10.221407    -22.077545    -0.587302    -8.073215    0.642841    
-12.041499    73.969254    122.808838    3.811614    -33.061031    -171.762253    0.212636    -3.645149    0.398445    3.858539    6.622467    0.168325    2.969233    7.253946    -3.392807    -17.620699    -28.560480    -10.571472    26.094519    -19.119007    -11.419631    -15.630104    -4.485696    -67.671188    9.385519    5.472712    -5.635015    -31.374647    4.692753    4.434075    -23.548470    -9.662094    9.599524    16.917276    -15.849880    54.124863    -30.839203    -15.791103    29.857206    9.775023    -7.579873    -0.573886    8.475458    -73.202087    4.035165    0.782763    50.012672    10.516205    -7.802348    -8.591486    -16.020681    0.177445    -5.978030    -0.198944    -29.150877    -66.462357    -20.381243    2.706852    49.416245    4.693829    1.496058    -10.243105    -22.006195    -0.565433    -8.183836    0.619014    
-12.046359    74.274986    122.789261    3.826690    -33.088501    -171.907593    0.138080    -3.748621    0.413189    3.878346    6.629412    0.183944    2.978668    7.769923    -3.489853    -17.404682    -28.149124    -10.513641    26.022524    -19.059698    -11.322778    -15.503930    -4.496122    -67.516777    9.819812    5.500716    -6.055491    -32.072548    4.702940    4.595419    -23.273350    -9.410844    9.529747    16.938427    -15.729035    54.241268    -31.383080    -15.865851    30.121054    11.214010    -7.428921    -0.571694    8.462348    -72.772720    3.819528    0.690482    49.354218    10.668354    -7.815495    -8.657732    -15.947273    0.163124    -6.068071    -0.182921    -28.425837    -66.110184    -19.699722    2.735539    48.611298    4.670957    1.467445    -10.284510    -21.945517    -0.540237    -8.275989    0.591518    
-12.048470    74.575706    122.775360    3.850590    -33.130886    -172.051941    0.055850    -3.839365    0.430863    3.911442    6.637327    0.202163    2.984188    8.237593    -3.582403    -17.148458    -27.719568    -10.435602    25.958256    -19.008171    -11.219025    -15.380103    -4.505276    -67.360893    10.305692    5.525970    -6.517526    -32.684727    4.725793    4.743483    -22.982275    -9.143068    9.470645    17.004339    -15.648770    54.351936    -31.966387    -15.949656    30.409166    12.574141    -7.267987    -0.602783    8.487558    -72.367271    3.607206    0.569858    48.705921    10.853660    -7.839160    -8.740481    -15.870168    0.146617    -6.154389    -0.164440    -27.725658    -65.776382    -19.049778    2.760473    47.813316    4.638533    1.440405    -10.345356    -21.891294    -0.510697    -8.359364    0.559249    
-12.047756    74.850258    122.768448    3.881566    -33.184727    -172.186005    -0.027713    -3.907521    0.449951    3.954079    6.642750    0.221424    2.986334    8.622577    -3.663316    -16.871262    -27.300848    -10.343023    25.907618    -18.962902    -11.118102    -15.265903    -4.518682    -67.211418    10.807890    5.543046    -6.987445    -33.163822    4.757920    4.866749    -22.693592    -8.879721    9.428684    17.110561    -15.614800    54.446697    -32.539986    -16.040804    30.706272    13.755065    -7.113680    -0.661340    8.549831    -72.013931    3.416334    0.433147    48.113678    11.055588    -7.868588    -8.833900    -15.794318    0.129560    -6.230041    -0.145332    -27.095335    -65.483894    -18.469427    2.786255    47.076736    4.591590    1.421410    -10.420096    -21.845850    -0.478698    -8.434739    0.524272    
-12.044584    75.108040    122.767998    3.919719    -33.250290    -172.314987    -0.114914    -3.954133    0.470402    4.007161    6.643953    0.241753    2.982137    8.939674    -3.735695    -16.564646    -26.878754    -10.233536    25.867153    -18.919050    -11.018237    -15.155107    -4.540373    -67.061714    11.337200    5.548713    -7.475632    -33.530891    4.796621    4.969929    -22.400051    -8.617090    9.402856    17.256252    -15.620232    54.526928    -33.112320    -16.144255    31.023550    14.800334    -6.965002    -0.742051    8.646710    -71.698776    3.243235    0.284174    47.557228    11.273188    -7.901753    -8.938717    -15.718223    0.112265    -6.298023    -0.125950    -26.510366    -65.220924    -17.932116    2.819543    46.375294    4.523813    1.416419    -10.508967    -21.804388    -0.443275    -8.512229    0.485538    
-12.039253    75.343750    122.774216    3.964055    -33.326206    -172.437027    -0.203302    -3.976991    0.491347    4.068226    6.639777    0.262328    2.970695    9.181368    -3.798120    -16.234524    -26.460407    -10.109438    25.837975    -18.878210    -10.920908    -15.048784    -4.570352    -66.913506    11.880116    5.539182    -7.969368    -33.776501    4.838007    5.051109    -22.108883    -8.364297    9.393250    17.437120    -15.661377    54.590176    -33.664768    -16.259634    31.357206    15.690967    -6.827349    -0.837884    8.773330    -71.428032    3.094555    0.133844    47.047367    11.496377    -7.936759    -9.050560    -15.646070    0.095422    -6.357215    -0.107067    -25.980595    -64.992905    -17.444990    2.863175    45.721996    4.433461    1.429359    -10.608128    -21.764822    -0.405603    -8.594563    0.444334    
-12.031816    75.559845    122.787498    4.015524    -33.413879    -172.553909    -0.292980    -3.976732    0.512478    4.136903    6.630384    0.283074    2.950459    9.348869    -3.851489    -15.876443    -26.038746    -9.969209    25.820299    -18.841867    -10.823490    -14.945328    -4.608869    -66.764595    12.439416    5.511229    -8.471001    -33.901756    4.879535    5.111850    -21.819254    -8.119985    9.398886    17.652304    -15.736990    54.636902    -34.196957    -16.388706    31.712364    16.440790    -6.700431    -0.944749    8.929061    -71.199493    2.973256    -0.010577    46.578175    11.721256    -7.974105    -9.167428    -15.581172    0.079116    -6.409260    -0.088781    -25.498045    -64.798805    -17.000813    2.918851    45.109707    4.319571    1.457911    -10.715342    -21.725605    -0.365901    -8.684431    0.400900    
